<svg height="66" width="80" fill="none" viewBox="0 0 80 66" xmlns="http://www.w3.org/2000/svg">
    <path d="M57.5895 6.57031H22.4107C21.5625 6.57031 20.7491 6.90765 20.1493 7.50812C19.5496 8.10859 19.2126 8.923 19.2126 9.77219V38.5891C19.2126 39.4383 19.5496 40.2527 20.1493 40.8532C20.7491 41.4537 21.5625 41.791 22.4107 41.791H57.5895C58.4377 41.791 59.2511 41.4537 59.8509 40.8532C60.4506 40.2527 60.7876 39.4383 60.7876 38.5891V9.77219C60.7876 8.923 60.4506 8.10859 59.8509 7.50812C59.2511 6.90765 58.4377 6.57031 57.5895 6.57031ZM32.9644 27.7027C33.3036 27.9575 33.5279 28.3367 33.5879 28.7571C33.6479 29.1774 33.5386 29.6044 33.2842 29.944C33.0297 30.2837 32.6509 30.5083 32.2311 30.5683C31.8112 30.6284 31.3848 30.519 31.0455 30.2642L24.6494 25.4614C24.4508 25.3123 24.2896 25.1189 24.1786 24.8966C24.0676 24.6743 24.0098 24.4292 24.0098 24.1807C24.0098 23.9321 24.0676 23.687 24.1786 23.4647C24.2896 23.2424 24.4508 23.049 24.6494 22.8999L31.0455 18.0971C31.3848 17.8423 31.8112 17.7329 32.2311 17.793C32.6509 17.853 33.0297 18.0776 33.2842 18.4173C33.5386 18.7569 33.6479 19.1839 33.5879 19.6042C33.5279 20.0246 33.3036 20.4038 32.9644 20.6586L28.2732 24.1807L32.9644 27.7027ZM44.7353 13.4143L38.3391 35.8275C38.2846 36.0332 38.1897 36.226 38.0598 36.3946C37.93 36.5631 37.768 36.704 37.5831 36.8091C37.3982 36.9142 37.1943 36.9814 36.9832 37.0066C36.7721 37.0319 36.5581 37.0147 36.3537 36.9562C36.1493 36.8976 35.9587 36.7989 35.7928 36.6657C35.627 36.5325 35.4894 36.3675 35.388 36.1804C35.2867 35.9933 35.2236 35.7879 35.2024 35.5761C35.1813 35.3643 35.2026 35.1504 35.265 34.947L41.6611 12.5338C41.784 12.1331 42.0591 11.7966 42.4271 11.5966C42.7952 11.3967 43.2269 11.3493 43.6295 11.4646C44.0321 11.5799 44.3734 11.8488 44.5802 12.2133C44.787 12.5779 44.8426 13.0091 44.7353 13.4143ZM55.3509 25.4614L48.9547 30.2642C48.6154 30.519 48.189 30.6284 47.7691 30.5683C47.3493 30.5083 46.9705 30.2837 46.7161 29.944C46.4616 29.6044 46.3523 29.1774 46.4123 28.7571C46.4723 28.3367 46.6966 27.9575 47.0359 27.7027L51.727 24.1807L47.0359 20.6586C46.8679 20.5324 46.7263 20.3744 46.6194 20.1935C46.5124 20.0126 46.442 19.8124 46.4123 19.6042C46.3826 19.3961 46.3942 19.1842 46.4463 18.9805C46.4984 18.7768 46.5901 18.5855 46.7161 18.4173C46.8421 18.2491 46.9999 18.1074 47.1806 18.0003C47.3613 17.8931 47.5613 17.8227 47.7691 17.793C47.977 17.7633 48.1887 17.7748 48.3921 17.827C48.5956 17.8792 48.7867 17.9709 48.9547 18.0971L55.3509 22.8999C55.5494 23.049 55.7106 23.2424 55.8216 23.4647C55.9327 23.687 55.9905 23.9321 55.9905 24.1807C55.9905 24.4292 55.9327 24.6743 55.8216 24.8966C55.7106 25.1189 55.5494 25.3123 55.3509 25.4614Z" fill="#00201B"/>
    <path d="M11.2924 47.1325C11.9364 47.1325 12.7711 47.8922 13.7966 49.4116C14.4781 50.6371 14.8189 51.897 14.8189 53.1913C14.8189 55.5986 13.7497 57.6245 11.6113 59.269C10.2732 60.1443 8.86008 60.582 7.37194 60.582C5.18974 60.582 3.2858 59.6723 1.66009 57.8527C0.553364 56.3708 0 54.8827 0 53.3883C0 52.8881 0.315762 52.4973 0.947285 52.2159C1.0911 52.1846 1.19739 52.169 1.26617 52.169H1.31307C1.93209 52.169 2.36352 52.516 2.60738 53.2101C2.68866 54.073 2.80434 54.6263 2.9544 54.8702C3.37333 56.0207 4.16743 56.8898 5.33668 57.4776C5.98071 57.7777 6.59973 57.9278 7.19374 57.9278H7.5689C9.03828 57.9278 10.3045 57.24 11.3674 55.8644C11.8926 54.9952 12.1553 54.1761 12.1553 53.4071V52.9662C12.1553 51.5969 11.5018 50.3557 10.195 49.2428C10.0325 48.9676 9.95118 48.7269 9.95118 48.5206V48.3986C9.95118 47.8109 10.3076 47.3982 11.0204 47.1606C11.1642 47.1418 11.2549 47.1325 11.2924 47.1325ZM20.859 47.1231H21.2154C22.8974 47.1231 24.0979 47.9735 24.817 49.6742C24.9921 50.2119 25.0796 50.709 25.0796 51.1655C25.0796 52.4473 24.5325 53.4977 23.4383 54.3168C23.0944 54.4919 22.9224 54.5951 22.9224 54.6263C24.2918 57.4776 24.9952 58.9813 25.0327 59.1377C25.064 59.2565 25.0796 59.344 25.0796 59.4003C25.0796 59.9443 24.7607 60.3319 24.1229 60.5633L23.8603 60.582C23.2788 60.582 22.8192 60.1006 22.4816 59.1377L20.4651 54.9452H18.1485V55.9394C18.1485 56.5522 17.8171 56.9586 17.1543 57.1587H16.9573C16.4196 57.1587 16.0413 56.8554 15.8225 56.2489C15.7912 56.1051 15.7756 55.9582 15.7756 55.8081V51.2124C15.7756 50.5183 16.0851 50.0744 16.7041 49.8805L16.9292 49.8524H16.9949C17.4763 49.8524 17.839 50.1275 18.0828 50.6777C18.1266 50.8341 18.1485 50.9685 18.1485 51.081V52.5629H21.3749C22.1314 52.5629 22.5754 52.1628 22.7067 51.3624V51.0529C22.7067 50.3276 22.3659 49.8243 21.6844 49.5429C21.5718 49.5116 21.4687 49.496 21.3749 49.496H21.0841C20.4151 49.496 19.9711 49.2521 19.7523 48.7644C19.696 48.6019 19.6585 48.4487 19.6397 48.3048C19.6397 47.8109 19.9149 47.4388 20.4651 47.1887C20.6214 47.145 20.7527 47.1231 20.859 47.1231ZM16.9573 58.2091C17.4075 58.2091 17.7702 58.4436 18.0453 58.9126C18.1141 59.1001 18.1485 59.2721 18.1485 59.4284C18.1485 59.9286 17.8546 60.2975 17.2668 60.5351C17.123 60.5664 17.0105 60.582 16.9292 60.582C16.4227 60.582 16.0538 60.2788 15.8225 59.6723L15.7756 59.4003C15.7756 58.9188 16.0413 58.5499 16.5728 58.2935C16.7104 58.256 16.8385 58.2279 16.9573 58.2091ZM27.2274 47.1418H27.2462C27.8089 47.1418 28.1997 47.4482 28.4185 48.061C28.4498 48.2111 28.4654 48.3611 28.4654 48.5112V59.2127C28.4654 59.9192 28.1559 60.3601 27.5369 60.5351C27.4744 60.5664 27.3775 60.582 27.2462 60.582H27.2274C26.7397 60.582 26.3708 60.3038 26.1207 59.7473C26.0769 59.591 26.055 59.4565 26.055 59.344V48.3799C26.055 47.8046 26.3551 47.4076 26.9554 47.1887C27.0617 47.1575 27.1524 47.1418 27.2274 47.1418ZM30.6132 47.1606C31.1385 47.1606 31.6137 47.5295 32.0389 48.2673L35.6592 53.0788C38.4104 49.4147 39.8391 47.5295 39.9454 47.4232C40.208 47.2481 40.4644 47.1606 40.7145 47.1606C41.3022 47.1606 41.7055 47.4889 41.9244 48.1454C41.9431 48.2517 41.9525 48.3361 41.9525 48.3986C41.9525 48.7738 41.5242 49.4772 40.6676 50.5089C38.4479 53.5227 37.0535 55.3829 36.4845 56.0895C36.3345 56.252 36.0593 56.3615 35.6592 56.4177C35.159 56.4177 34.6837 56.0457 34.2336 55.3016L31.8794 52.1878H31.8513V59.3628C31.8513 59.8942 31.5637 60.2788 30.9884 60.5164C30.8633 60.5601 30.7477 60.582 30.6414 60.582H30.5945C30.0255 60.582 29.6253 60.2538 29.394 59.5972C29.3815 59.4909 29.3752 59.4065 29.3752 59.344V48.3986C29.3752 47.8109 29.7035 47.4076 30.36 47.1887C30.4663 47.17 30.5507 47.1606 30.6132 47.1606ZM54.1172 47.1325C54.7612 47.1325 55.5959 47.8922 56.6214 49.4116C57.3029 50.6371 57.6437 51.897 57.6437 53.1913C57.6437 55.5986 56.5745 57.6245 54.436 59.269C53.098 60.1443 51.6849 60.582 50.1967 60.582C48.0145 60.582 46.1106 59.6723 44.4849 57.8527C43.3781 56.3708 42.8248 54.8827 42.8248 53.3883C42.8248 52.8881 43.1405 52.4973 43.7721 52.2159C43.9159 52.1846 44.0222 52.169 44.0909 52.169H44.1378C44.7569 52.169 45.1883 52.516 45.4321 53.2101C45.5134 54.073 45.6291 54.6263 45.7792 54.8702C46.1981 56.0207 46.9922 56.8898 48.1615 57.4776C48.8055 57.7777 49.4245 57.9278 50.0185 57.9278H50.3937C51.8631 57.9278 53.1292 57.24 54.1922 55.8644C54.7174 54.9952 54.98 54.1761 54.98 53.4071V52.9662C54.98 51.5969 54.3266 50.3557 53.0198 49.2428C52.8572 48.9676 52.776 48.7269 52.776 48.5206V48.3986C52.776 47.8109 53.1324 47.3982 53.8452 47.1606C53.989 47.1418 54.0796 47.1325 54.1172 47.1325ZM67.7918 47.1418C67.8981 47.1418 68.0107 47.1637 68.1295 47.2075C68.686 47.4388 68.9642 47.8078 68.9642 48.3142V48.3611C68.9642 48.4362 68.9517 48.5268 68.9267 48.6331C68.7141 49.2334 68.3296 49.5335 67.7731 49.5335C67.7105 49.5335 67.6261 49.5273 67.5198 49.5147C66.8883 49.2896 66.5725 48.9114 66.5725 48.3799V48.2955C66.5725 48.2392 66.5819 48.1704 66.6007 48.0891C66.8133 47.4576 67.2041 47.1418 67.7731 47.1418H67.7918ZM60.0729 47.1606C60.7044 47.3669 61.0201 47.8046 61.0201 48.4737V55.7518C61.0201 56.1395 61.1171 56.5209 61.3109 56.8961C61.8611 57.7589 62.6834 58.1904 63.7776 58.1904C64.6029 58.1904 65.2939 57.934 65.8504 57.4213C66.3318 57.0399 66.5725 56.3396 66.5725 55.3204V53.8479C66.5725 53.7853 66.5819 53.7041 66.6007 53.604C66.8383 52.9725 67.2291 52.6567 67.7731 52.6567C67.9294 52.6692 68.0419 52.6911 68.1107 52.7224C68.6797 52.9475 68.9642 53.332 68.9642 53.876V55.6111C68.9642 56.6928 68.6641 57.6651 68.0638 58.528C66.9571 59.8974 65.5346 60.582 63.7963 60.582H63.7494C63.2617 60.582 62.6834 60.4914 62.0143 60.31C59.7383 59.4597 58.6003 57.8246 58.6003 55.4048V48.4549C58.6003 48.3174 58.616 48.1892 58.6472 48.0704C58.8723 47.4514 59.2475 47.1418 59.7727 47.1418H59.8384L60.0729 47.1606ZM74.1883 47.1512H74.4416C75.6171 47.1512 76.7082 47.5858 77.7149 48.4549C78.509 49.2865 78.906 50.2244 78.906 51.2686C78.906 51.8064 78.609 52.1846 78.015 52.4035C77.8837 52.416 77.8055 52.4316 77.7805 52.4504C77.3553 52.4504 77.0114 52.2347 76.7488 51.8032C76.6738 51.6657 76.6175 51.3405 76.58 50.8278C76.4049 50.3151 76.1267 49.9649 75.7453 49.7774C75.3138 49.5335 74.8324 49.4116 74.3009 49.4116C73.2817 49.4116 72.597 49.8117 72.2469 50.6121C72.1781 50.8122 72.1437 51.0529 72.1437 51.3343V51.4187C72.1437 51.7001 72.4063 51.9783 72.9315 52.2534C73.2129 52.5411 73.3536 52.8318 73.3536 53.1257C73.3536 53.6009 73.091 53.9573 72.5658 54.1949C72.4532 54.2387 72.3469 54.2605 72.2469 54.2605H72.2C71.731 54.2605 71.1339 53.8698 70.4086 53.0882C70.0397 52.5129 69.8552 51.9345 69.8552 51.353C69.8552 49.8711 70.4961 48.6988 71.7779 47.8359C72.5783 47.3794 73.3817 47.1512 74.1883 47.1512ZM74.7417 52.8724H74.8261C75.3388 52.8724 75.6952 53.1788 75.8953 53.7916C75.9141 53.8916 75.9235 53.9698 75.9235 54.0261C75.9235 54.5388 75.6171 54.9014 75.0043 55.114C74.9043 55.1265 74.8261 55.1328 74.7698 55.1328C74.2509 55.1328 73.8882 54.8358 73.6819 54.2418C73.6631 54.1668 73.6537 54.1011 73.6537 54.0448V53.9604C73.6537 53.4727 73.932 53.1257 74.4885 52.9193C74.5885 52.8881 74.6729 52.8724 74.7417 52.8724ZM77.2459 53.9604C77.7774 53.9604 78.2526 54.3887 78.6715 55.2453C78.8278 55.6455 78.906 56.0238 78.906 56.3802C78.906 57.7371 78.3433 58.8469 77.2178 59.7098C76.3486 60.2913 75.417 60.582 74.4228 60.582H74.3384C72.8065 60.582 71.5622 59.9755 70.6055 58.7625C70.1053 58.0184 69.8552 57.2306 69.8552 56.399C69.8552 55.9113 70.1116 55.5486 70.6243 55.311C70.7556 55.2672 70.8775 55.2391 70.9901 55.2266C71.5153 55.2266 71.8842 55.5173 72.0968 56.0988C72.1406 56.6428 72.2062 57.0055 72.2938 57.1868C72.7127 57.9434 73.4099 58.3217 74.3853 58.3217C75.4483 58.3217 76.1673 57.8871 76.5425 57.018C76.5988 56.8117 76.6269 56.6116 76.6269 56.4177V56.3146C76.6269 56.1833 76.4987 55.9613 76.2423 55.6486C76.1423 55.4486 76.0923 55.2641 76.0923 55.0953C76.0923 54.5951 76.3705 54.2387 76.927 54.0261C76.9895 54.0011 77.0958 53.9792 77.2459 53.9604Z" fill="#00201B"/>
    <path d="M62.9025 0L61.7841 2.44095L59.3521 3.55047L61.7841 4.66887L62.9025 7.10095L64.0121 4.66887L66.453 3.55047L64.0121 2.44095M54.0264 2.66286L51.8073 7.54476L46.9254 9.7638L51.8073 11.9829L54.0264 16.8648L56.2454 11.9829L61.1273 9.7638L56.2454 7.54476M62.9025 12.4267L61.7841 14.8587L59.3521 15.9771L61.7841 17.0867L62.9025 19.5276L64.0121 17.0867L66.453 15.9771L64.0121 14.8587" fill="#026B5D"/>
</svg>