<svg height="43" width="42" fill="none" viewBox="0 0 42 43" xmlns="http://www.w3.org/2000/svg">
	<path d="M12.36 20.4L14.64 18.12C14.86 17.9 14.97 17.62 14.97 17.28C14.97 16.94 14.86 16.66 14.64 16.44C14.42 16.22 14.14 16.11 13.8 16.11C13.46 16.11 13.18 16.22 12.96 16.44L9.84 19.56C9.6 19.8 9.48 20.08 9.48 20.4C9.48 20.72 9.6 21 9.84 21.24L12.96 24.36C13.18 24.58 13.46 24.69 13.8 24.69C14.14 24.69 14.42 24.58 14.64 24.36C14.86 24.14 14.97 23.86 14.97 23.52C14.97 23.18 14.86 22.9 14.64 22.68L12.36 20.4ZM29.64 20.4L27.36 22.68C27.14 22.9 27.03 23.18 27.03 23.52C27.03 23.86 27.14 24.14 27.36 24.36C27.58 24.58 27.86 24.69 28.2 24.69C28.54 24.69 28.82 24.58 29.04 24.36L32.16 21.24C32.4 21 32.52 20.72 32.52 20.4C32.52 20.08 32.4 19.8 32.16 19.56L29.04 16.44C28.82 16.22 28.54 16.11 28.2 16.11C27.86 16.11 27.58 16.22 27.36 16.44C27.14 16.66 27.03 16.94 27.03 17.28C27.03 17.62 27.14 17.9 27.36 18.12L29.64 20.4ZM9 14.4V13.2C9 12.54 9.235 11.975 9.705 11.505C10.175 11.035 10.74 10.8 11.4 10.8H30.6C31.26 10.8 31.825 11.035 32.295 11.505C32.765 11.975 33 12.54 33 13.2V14.4C33 14.74 32.885 15.025 32.655 15.255C32.425 15.485 32.14 15.6 31.8 15.6C31.46 15.6 31.175 15.485 30.945 15.255C30.715 15.025 30.6 14.74 30.6 14.4V13.2H11.4V14.4C11.4 14.74 11.285 15.025 11.055 15.255C10.825 15.485 10.54 15.6 10.2 15.6C9.86 15.6 9.575 15.485 9.345 15.255C9.115 15.025 9 14.74 9 14.4ZM17.4 32.4C17.06 32.4 16.775 32.285 16.545 32.055C16.315 31.825 16.2 31.54 16.2 31.2V30H11.4C10.74 30 10.175 29.765 9.705 29.295C9.235 28.825 9 28.26 9 27.6V26.43C9 26.09 9.115 25.81 9.345 25.59C9.575 25.37 9.86 25.26 10.2 25.26C10.54 25.26 10.825 25.375 11.055 25.605C11.285 25.835 11.4 26.12 11.4 26.46V27.6H30.6V26.43C30.6 26.09 30.715 25.81 30.945 25.59C31.175 25.37 31.46 25.26 31.8 25.26C32.14 25.26 32.425 25.375 32.655 25.605C32.885 25.835 33 26.12 33 26.46V27.6C33 28.26 32.765 28.825 32.295 29.295C31.825 29.765 31.26 30 30.6 30H25.8V31.2C25.8 31.54 25.685 31.825 25.455 32.055C25.225 32.285 24.94 32.4 24.6 32.4H17.4Z" fill="#00201B"/>
</svg>