<svg width="42" height="43" viewBox="0 0 42 43" fill="none" xmlns="http://www.w3.org/2000/svg">
    <g clip-path="url(#clip0_210_1470)">
        <path d="M26.6531 20.4861L28.7461 18.3931L23.7468 13.3938L21.6538 15.4868L16.1345 9.98094C15.0947 8.94109 13.4016 8.94109 12.3617 9.98094L9.82875 12.5139C8.78889 13.5538 8.78889 15.2469 9.82875 16.2867L15.3347 21.7926L9.20217 27.9384C9.06885 28.0718 9.0022 28.2317 9.0022 28.4184V32.4712C9.0022 32.8444 9.29549 33.1377 9.66877 33.1377H13.7215C13.8949 33.1377 14.0682 33.0711 14.1881 32.9378L20.3473 26.7786L25.8532 32.2845C27.6129 34.0443 29.5327 32.3778 29.626 32.2845L32.159 29.7515C33.1988 28.7117 33.1988 27.0186 32.159 25.9787L26.6531 20.4861ZM17.2411 19.8996L11.7218 14.3937L14.2415 11.8607L15.9346 13.5538L15.308 14.207C14.7881 14.7269 14.7881 15.5668 15.308 16.0868C15.8279 16.6067 16.6678 16.6067 17.1877 16.0868L17.8276 15.4468L19.7607 17.3799L17.2411 19.8996ZM27.7463 30.4181L22.2404 24.9122L24.7733 22.3792L26.7064 24.3123L26.0665 24.9522C25.5466 25.4721 25.5466 26.312 26.0665 26.8319C26.5864 27.3519 27.4263 27.3519 27.9462 26.8319L28.5861 26.192L30.2792 27.8851L27.7463 30.4181Z" fill="#00201B"/>
        <path d="M32.6123 14.527C33.1322 14.0071 33.1322 13.1672 32.6123 12.6472L29.4927 9.52768C28.8662 8.9011 27.9996 9.14107 27.613 9.52768L25.1733 11.9673L30.1726 16.9667L32.6123 14.527Z" fill="#00201B"/>
    </g>
    <defs>
        <clipPath id="clip0_210_1470">
            <rect width="42.02" height="42.02" fill="white" transform="translate(-0.0100098 0.12915)"/>
        </clipPath>
    </defs>
</svg>